<svg version="1" xmlns="http://www.w3.org/2000/svg" width="2358.667" height="2358.667" viewBox="0 0 1769.000000 1769.000000"><path d="M805.8 82.6c-.2.1-5.3.5-11.3.8-6.1.3-11 .5-11 .6 0 .1-2.5.3-5.5.5-11.5.9-34.5 3.2-34.5 3.6 0 0-1.3.2-3 .4-3.6.3-11 1.4-14.5 2.1-1.4.2-3.8.6-5.5.9-1.6.2-4.3.7-6 1-1.6.3-6.4 1.2-10.5 2-19.3 3.7-43 9.9-60 15.6-5.2 1.7-9.9 3.2-10.5 3.4-.5.1-2.3.8-4 1.4-1.6.7-3.4 1.4-4 1.5-2.2.6-6.1 2.1-14.9 6-3.2 1.4-6.5 2.6-7.2 2.6-.8 0-1.4.5-1.4 1 0 .6-.3.9-.7.8-.5-.1-4.8 1.7-9.8 4.2-4.9 2.4-9.2 4.4-9.5 4.5-1.7.4-9.6 5-10.2 5.9-.4.6-.8.7-.8.3 0-.5-1.3.1-2.9 1.2-1.6 1.2-3.1 2.1-3.4 2.1-2.5 0-40.3 26-46.8 32.2-.8.7-4.3 3.8-7.9 6.8-12.6 10.7-28.5 27.5-40.7 43-5.9 7.5-20.4 28.2-21.7 31-.3.8-2.2 4.2-4.2 7.5-8.5 14.5-27.4 56.4-27.4 60.9 0 .8-.5 1.8-1.1 2.1-.6.4-.8 1.3-.5 2 .2.7 0 1.7-.4 2.1-.5.5-1.1 1.8-1.3 2.9-.2 1.1-.7 2.7-1 3.5-.8 2.1-2.8 8.9-3.1 10.3-.2.7-.8 3.2-1.5 5.7-1.4 4.7-1.9 6.9-2.7 11-.2 1.4-.7 3.2-1 4-.6 1.7-1.4 5.1-1.9 9-.2 1.4-.4 2.5-.5 2.5-.1 0-.3.9-.5 2s-.5 2.9-.8 4c-.3 1.1-.8 4-1.2 6.5-.3 2.5-.9 5.8-1.1 7.5-1.6 9.8-1.7 10.1-2.8 19.5-2.9 25.7-3.7 40.7-3.8 70.5 0 19.3.7 48 1.2 48 .1 0 .3 2.5.5 5.5.1 3 .6 8.9.9 13 .4 4.1.9 9.5 1.1 12 .4 4.1 1.1 10.1 2.1 18.5.2 1.6.6 5 .9 7.5.2 2.5.7 6.1 1 8 .4 1.9.8 4.8 1 6.5.4 3 .7 4.6 2.1 14 .4 2.7.8 6 .8 7.2.1 1.3.3 2.3.6 2.3s.6.8.7 1.7c0 1 .3 3.5.7 5.5.9 5.6 1.8 11 2.1 13.3.2 1.1.4 2 .5 2 .1 0 .3.9.5 2 .1 1.1.6 3.3.9 5 .4 1.6.8 3.9 1 5 .2 1.1.9 4.7 1.6 8 .7 3.3 1.3 6.4 1.4 7 .2.5.8 3.5 1.4 6.5.7 3 1.3 6.4 1.5 7.5.2 1.1.6 2.7.9 3.5.5 1.5 5 20.5 5.3 22.5.1.5.3 1.2.4 1.5.1.3.4 1.4.6 2.5 1 4.9 12.1 46.7 16.4 61.2.5 1.8.7 3.3.4 3.3-.3 0-.1.6.5 1.2.6.7 1.7 3.8 2.5 6.8s2.7 9.3 4.2 14c1.5 4.7 2.7 8.9 2.9 9.5.1.5.5 1.6 1 2.3.4.7.5 1.6.2 1.9-.3.3-.2 1.1.2 1.7.5.6 2.4 5.8 4.2 11.6 1.8 5.8 3.5 11.2 3.8 12 .3.8.6 1.9.8 2.5.1.5 1.3 4 2.6 7.6l2.4 6.6-2.5 3.4c-1.4 1.8-8.1 10.3-14.8 18.9-6.8 8.5-12.6 16-13 16.5-.5.6-3.3 4.2-6.4 8-3.1 3.9-8.2 10.4-11.4 14.5-3.3 4.1-6.4 8-7 8.7-.5.6-2 2.4-3.2 4-6.9 9.2-38.7 49.3-41.1 52.1-1.6 1.8-2.5 3.5-2 3.8.5.4 4.4.8 8.6 1 7.2.3 16.6.8 37.2 1.9 15.7.9 35 2 52.5 2.9 4.4.3 13 .7 19 1.1 11 .6 21 1.2 36 2 4.4.2 12.3.7 17.5 1 5.2.3 14.2.8 20 1.1 5.8.3 13.7.7 17.5.9 3.9.2 11.3.6 16.5.9 23 1.2 28.2 1.6 29.1 2.1.5.4.9.1.9-.5s.5-.8 1.2-.4c1.2.8 11.4 1.5 26 1.7 4.9.1 8.8.4 8.8.7 0 .3 3.6.5 8 .5s8 .2 8 .5 3.9.5 8.8.5c4.8 0 9.1.1 9.5.3.5.2 5.4.6 11 .9 10.5.4 17.2.8 33.7 1.8 5.2.3 13.8.8 19 1 5.2.3 13.8.8 19 1 5.2.3 13.1.7 17.5.9 4.4.2 8 .5 8 .5 0 .1 4.3.4 9.5.6 5.2.2 13.6.6 18.5.9 13.5.9 32.4 1.9 37.2 2 2.4 0 4.3.5 4.3.9s.8.3 1.9-.2c1-.6 2.1-.8 2.4-.5.3.3 4.5.7 9.4.9 4.8.3 12.6.7 17.3 1 4.7.2 13.5.7 19.5 1.1 6.1.3 14.4.7 18.5 1 4.1.2 10.9.6 15 .8 16.6.9 32.3 1.7 32.9 1.8 2.3.2 2.8-.5 2.5-4-.2-2-.6-7.9-.8-13-.3-5-.8-9.7-1.1-10.2-.3-.6-.1-1 .5-1s.8-.5.3-1.3c-.4-.6-.8-3-.9-5.2-.2-3.7-1-17.5-1.9-33.5-.3-3.6-.7-10.8-1-16-.3-5.2-.7-12.9-1-17-.2-4.1-.7-11.6-1-16.5-.3-5-.8-12.8-1.1-17.5-.3-4.7-.7-12.3-.9-17-.2-4.7-.4-8.5-.5-8.5-.1 0-.4-3.6-.6-8-.2-4.4-.6-11.6-.8-16-1.5-23.9-1.8-28.7-2.1-36-.2-4.4-.7-12.3-1-17.5-.3-5.2-.8-13.3-1-18-.3-4.7-.7-13-1.1-18.5-.3-5.5-.7-13.6-.9-18-.2-4.4-.4-8-.5-8-.1 0-.3-3.8-.5-8.5-.4-8.3-.8-16.3-2-38.5-.4-6.1-.8-14.4-1-18.5-.3-7.3-1-19.6-2-39-1.3-24.7-1.6-33.2-1.8-42.2-.1-5.4-.4-9.8-.7-9.8-.3 0-.6-4.2-.6-9.3-.1-5-.4-16.2-.8-24.7-1.2-30.7-1.7-47.8-1.8-67.2l-.2-19.6-4 2.1c-2.3 1.2-4.2 2.5-4.4 2.9-.2.5-.8.8-1.3.8s-6 2.9-12.2 6.4c-6.1 3.5-13.2 7.4-15.7 8.8-2.5 1.4-6.3 3.5-8.5 4.8-2.2 1.3-6.9 3.9-10.5 5.8-3.6 1.9-6.9 3.8-7.5 4.2-.5.4-4.1 2.5-8 4.5-3.8 2.1-7.8 4.4-8.7 5.3-1 .8-1.8 1.1-1.8.7 0-.4-.8-.2-1.7.6-1.9 1.5-3.1 2.2-11.6 6.8-2.9 1.6-6.8 3.8-8.7 5-1.9 1.1-4.4 2.5-5.5 3-1.1.5-6 3.2-10.9 6s-9.1 5.1-9.3 5.1c-.2 0-2 1-4.1 2.3-2 1.3-6.7 4-10.4 6l-6.7 3.6-2.9-3.7c-4.1-5.4-15-21.4-20.7-30.7-2.7-4.4-5.3-8.2-5.7-8.3-.5-.2-.8-.8-.8-1.4 0-.6-1.7-3.8-3.9-7.2-2.1-3.4-4.1-7.1-4.5-8.4-.4-1.2-1.2-2.2-1.7-2.2s-.8-.3-.7-.8c.2-.4-1.4-3.7-3.5-7.4-2-3.6-3.7-7.1-3.7-7.7 0-.6-.4-1.1-1-1.1-.5 0-1-.5-1-1 0-.6-2-5.3-4.4-10.4-8.3-17.7-16.1-36.7-15.6-38.2.1-.4-.3-1-.9-1.3-.6-.4-1.2-1.6-1.4-2.6-.2-1.1-.7-2.7-1-3.5-.3-.8-1.1-3.3-1.7-5.5-.6-2.2-1.5-4.9-1.9-6-1.2-2.9-2.9-8.6-3.5-11.5-.3-1.4-1.2-5.2-2-8.5-1.7-6.7-2.6-11-3.1-14.2-.2-1.1-.6-2.9-.9-4-.6-2.1-1.6-8.9-2.1-15.3-.2-2.5-.5-4.5-.6-4.5-.5 0-1.1-12.9-1.2-24.5 0-15.1.7-24.3 2.8-36.5 1.4-8.3 5.3-22.9 7.3-27.5.9-1.9 1.7-4 1.8-4.6.4-2.4 5.9-13.9 6.9-14.6.5-.4.7-.8.2-.8-.4 0 .4-1.8 1.8-4s2.5-4.2 2.5-4.6c0-1.3 13.4-20.1 18.5-25.9 6.7-7.7 19.9-20.7 24.4-24 1.9-1.4 3.7-2.9 4-3.3.7-1 20.9-15.2 21.7-15.2.3 0 2-1.1 3.7-2.4 1.8-1.3 5.9-3.8 9.2-5.6 3.3-1.7 8.3-4.4 11.2-5.9 2.9-1.6 5.5-2.6 5.8-2.3.3.3.5-.1.5-.8 0-.7.3-1 .7-.7.3.4 1.5-.1 2.6-1 1-1 2.1-1.7 2.3-1.5.2.1 2.6-.7 5.2-1.9 2.6-1.1 9.7-4 15.7-6.4 6.1-2.3 11.9-4.6 13-5 1.1-.5 2.2-.9 2.5-1 .3-.1 6.5-2 13.9-4.4 7.3-2.3 14.1-4.4 15-4.6.9-.3 6.6-1.8 12.7-3.4 11.1-3.1 30.5-7.4 37.9-8.6 4.3-.6 7.1-2.3 3.3-2.1-1.3.1-2.7 0-3.3-.3-1.2-.6-2.2-.8-9.4-1.6-3-.3-5.7-.7-6-.9-.3-.2-3.3-.7-6.5-1-3.2-.4-6.3-.9-6.7-1.2-.5-.3-.9 0-.9.7 0 .8-.3.9-1.3 0-.8-.6-4.7-1.3-8.8-1.6-4.1-.3-9.2-.8-11.4-1-2.2-.2-8-.7-13-1-4.9-.4-11.5-.9-14.5-1.1-6.1-.5-73.8-1.3-74.2-.8zM1047.4 433.2c-.3.5-.8 6.9-1 14.1-.3 7.3-.6 18.4-.8 24.8-.2 6.4-.7 12.2-1 12.8-.4.6-.2 1.1.4 1.1.6 0 .8.5.4 1.2-.4.6-.9 5.9-1 11.7-.3 10.3-.7 19.8-1.9 48.1-.9 20.4-1.6 39.3-1.9 50.8-.2 5.6-.6 10.5-.9 10.8-.3.3-.2 1.7.3 3s.6 2.4.2 2.4c-.4 0-.8 4.4-.9 9.8-.2 5.3-.5 15.5-.8 22.7-.7 19-1.5 37.4-2 51-.3 6.6-.7 17.2-1 23.5-.2 6.3-.7 17.6-1 25-.9 24.4-1.6 41.3-1.9 51.8-.2 5.6-.6 10.5-.9 10.9-.4.3-.2 1.4.4 2.4.5 1.1.6 1.9.2 1.9-.4 0-.9 3.7-1 8.3-.1 8.6-1.1 35.2-1.2 35.2-.2 0-1.3 30.4-1.4 39.2-.1 4.6-.6 8.3-1.1 8.3-.5 0-.3.6.3 1.3.6.8.8 1.6.6 1.9-.3.3-.8 6.3-1 13.4-.3 7.1-.7 18.1-1 24.4-.9 22.4-1.7 42.6-1.8 52.2-.1 5.4-.4 9.8-.7 9.8-.3 0-.6 5.1-.6 11.3-.1 6.1-.3 15-.5 19.7l-.3 8.5 2.4-.3c1.4-.2 5.7-.9 9.5-1.7 3.9-.7 8.6-1.6 10.5-1.9 3.8-.6 5.4-.9 15-2.7 3.6-.7 7.6-1.3 9-1.5 1.4-.2 4.5-.8 7-1.3 4.7-1 10.4-2 15.5-2.7 1.7-.3 4.1-.7 5.5-.9 1.4-.2 2.5-.4 2.5-.5 0-.3 7.8-1.7 14-2.6 1.1-.1 2-.3 2-.4 0-.1 1.1-.3 2.5-.4 1.4-.2 3.9-.6 5.5-1 4.1-.9 11.6-2.3 17-3.1 1.1-.2 3.6-.6 5.5-1s4.6-.9 6-1c1.4-.2 2.5-.4 2.5-.5 0-.1.9-.3 2-.5 1.1-.1 3.4-.5 5-.8 4-.7 11.8-2.1 13-2.3.6-.1 1.2-.3 1.5-.4.3-.1 1.7-.3 3.3-.5 1.5-.2 5.3-.9 8.4-1.6 3.2-.6 7.3-1.3 9.3-1.4 1.9-.2 3.5-.4 3.5-.5 0-.2 2.4-.7 6.9-1.5 2.1-.4 4.8-.9 6-1.1 1.1-.3 3.8-.7 5.9-1 5.1-.8 7.2-1.2 7.2-1.5 0-.1 1.4-.3 3-.4 2.6-.2 4.6-.6 10.5-2 .8-.1 4-.7 7-1.1 6-.9 6.9-1 7.3-1.4.1-.1 1.3-.3 2.7-.5 3-.3 7.1-1.1 17.3-3.1 4.4-.9 9.2-1.7 10.7-1.9 2.9-.4 12.5-2.1 17-3 1.4-.3 4.3-.8 6.5-1.1 2.2-.3 4.6-.7 5.4-1 .8-.3 3-.7 5-1 2-.3 10.8-1.8 19.6-3.4 8.8-1.6 17.6-3.2 19.5-3.5 1.9-.3 4.4-.8 5.5-1 1.1-.2 3.8-.6 6-1 2.2-.3 5.6-1 7.5-1.5 1.9-.4 4.2-.8 5-.9.8 0 3.5-.4 6-1 2.5-.5 6.3-1.2 8.5-1.5 2.2-.4 4.7-.8 5.5-1.1.8-.2 3.1-.6 5-.9 1.9-.3 4.6-.8 6-1 7-1.3 10.7-1.9 13-2.2 1.4-.1 2.5-.3 2.5-.4 0-.2 2-.6 6.5-1.4 1.9-.3 7.1-1.2 11.5-2 4.4-.9 9.6-1.8 11.5-2.1 1.9-.3 5.1-.8 7-1.2 1.9-.4 4.4-.8 5.5-.9 1.1-.1 2-.3 2-.4 0-.1 1.1-.3 2.5-.6 1.4-.2 3.9-.7 5.5-1 1.7-.3 4.1-.7 5.5-.9 1.4-.1 2.5-.4 2.5-.5 0-.1 1.4-.3 3-.6 1.7-.2 3.9-.6 5-.8 1.1-.3 2.8-.5 3.8-.5 2.4-.1 2.2-1.2-1.5-6.8-1.8-2.7-3.8-5.8-4.5-6.8-3.1-5.3-18.8-30.1-19.3-30.5-.3-.3-1.4-2.2-2.4-4.3-1.1-2-2.2-3.7-2.6-3.7-.4 0-1-.8-1.4-1.8-.3-.9-1.4-2.9-2.3-4.4-3.1-4.7-10.8-16.9-12.3-19.6-.8-1.5-1.7-2.9-2-3.2-1.2-1.1-13-20.2-13-21 0-.4-.3-1-.8-1.2-.9-.3-10.3-15.3-11.4-18.1-.6-1.4.6-3.1 5.1-7.5 6.6-6.4 20-18.9 22.8-21.2 11.2-9.3 14.9-12.4 15.3-12.9.3-.3 3.2-2.6 6.5-5 3.3-2.5 6.2-4.7 6.5-5 .7-.8 4.5-3.4 17-11.8 10.3-6.9 13.8-9 21-12.9 1.9-1.1 3.7-2.2 4-2.5.3-.3 2.3-1.4 4.5-2.4s4.8-2.5 5.8-3.3c.9-.8 1.7-1.2 1.7-.8 0 .3 2.3-.6 5.2-2 2.9-1.5 8.2-3.8 11.7-5.1 3.6-1.3 7-2.7 7.5-3.1.6-.3 1.7-.7 2.6-.8.8-.1 4.7-1.1 8.5-2.2 9.5-2.7 16.7-4.1 25-4.7 11.4-.9 14.5-1 14.5-.5 0 .3 2.9.6 6.4.7 12 .5 28.5 6.5 41.3 15 5.3 3.5 19.4 16.7 23.6 22.2 5.1 6.5 12.6 18.5 17.1 27.5 5 9.9 9.6 20 9.6 21.2 0 .3.6 2 1.4 3.7 1.5 3.4 7.5 22 8.1 25.3.2 1 .4 2 .5 2.1.2.2.4.7.5 1.3.1.5.4 1.2.5 1.5.4.7.6 1.6 1.5 6 .4 2.2 1 4.9 1.2 6 .2 1.1.5 2.5.7 3.2.1.7.5 1.5.9 1.9.6.6.2-6.1-.9-15.6-.2-1.9-.6-5.8-.9-8.5-.5-5.1-1.2-10.6-1.5-11.5-.2-.3-.2-.9-.1-1.3s-.3-3.6-.9-7c-.5-3.4-1.2-8-1.5-10.2-.3-2.2-.8-4.9-1-6.1-.3-1.2-.7-3.9-1-6-.4-2.1-.8-4.6-1-5.4-.3-.8-.7-3.3-1-5.5-.4-2.2-.8-4.8-1.1-5.7-.3-1-.7-3-1-4.5-.2-1.6-.7-3.9-1.1-5.3-.3-1.4-.7-3.1-.9-3.9-.1-.7-.8-3.5-1.4-6.1-.6-2.6-1.3-5.6-1.5-6.6-.2-1.1-.4-1.9-.5-1.9-.1 0-.3-.9-.4-2-.2-1.1-1.1-4.9-2.1-8.5-.9-3.6-1.8-7-2-7.5-2.5-11-13-44-17.4-55.3-1.1-2.8-1.8-5.2-1.6-5.2.3 0-.1-1-.9-2.3-.8-1.2-1.5-2.4-1.5-2.7 0-.6-1.8-5.4-3.8-10-.8-1.9-1.9-4.4-2.3-5.5-2.4-6.1-5-11.7-12.8-27.5-4.8-9.6-8.9-17.7-9.2-18-.5-.5-.9-1.2-5.2-8.9-1.1-2-2.9-4.8-3.9-6.3-1.1-1.4-1.9-3.1-1.9-3.6 0-.6-.4-1.2-.8-1.4-.4-.2-2.7-3.4-5.1-7.3-4.7-7.4-16.5-23.3-18.7-25.1-.8-.6-1.4-1.4-1.4-1.8 0-.4-.6-1.3-1.2-2-.7-.7-4-4.4-7.3-8.1-14.7-16.7-33.1-33.1-49.5-44-4.1-2.7-7.7-5.2-8-5.5-.5-.5-2.3-1.5-9.7-5.6-2.4-1.3-6.3-3.5-8.8-4.9-7.3-4-24.3-11.1-36-14.9-15.8-5.2-16.2-5.3-25.3-7.1-1.3-.2-3.1-.6-4-.9-3.5-1.1-15.5-2.8-29.7-4.3-13.4-1.4-64.6-.5-67.4 1.1-.3.2-3.7.7-7.5 1.1-3.8.3-7.2.8-7.5.9-.3.2-2.6.7-5.1 1-2.5.3-5.4.8-6.5 1-1.1.2-5.6 1.2-10 2-4.4.9-9.6 2-11.5 2.6-1.9.5-9.7 2.5-17.3 4.5-7.6 2-16.3 4.5-19.5 5.6-3.1 1.1-6.4 2.2-7.2 2.4-.8.1-4.2 1.3-7.5 2.5-3.3 1.1-8 2.8-10.5 3.6-2.5.8-5.2 1.8-6 2.1-.8.4-1.7.7-2 .8-.3.1-1.8.7-3.5 1.4-1.6.7-3.5 1.4-4.1 1.5-.7.1-1.9.8-2.8 1.5-.8.7-1.9 1-2.5.7-.5-.3-1.1-.1-1.3.4-.2.6-1.3 1.2-2.6 1.3-1.2 0-2.2.5-2.2.9s-.8.8-1.8.8-2.3.5-2.9 1.1c-.6.6-1.7 1.2-2.4 1.3-4.4.9-41.2 18.3-61.4 29-1.6.9-3.3 1.6-3.6 1.6-.4 0-3.1-2.4-6.2-5.3-3-2.8-12.4-11.8-20.8-19.8-8.5-8.1-19.4-18.5-24.3-23-4.8-4.6-11.6-11.1-15-14.4-3.5-3.3-13.4-12.8-22.1-21-8.6-8.3-17.7-16.9-20.1-19.2-2.5-2.4-4.6-3.7-5-3.1zM43.7 1038c.6 2.8 6.8 18.6 8.3 21.2.6 1 1 2.2 1 2.8 0 .5 1.1 3.3 2.4 6.2 1.3 2.9 3.6 8.2 5.1 11.8 4 9.6 7.8 17.7 16.6 35.7 4.3 8.9 7.9 16.6 7.9 17.2 0 .5.4 1.1.8 1.3.5.1 2.1 2.8 3.6 5.8 3.3 6.8 10.1 19.1 11.3 20.5.4.6 2.1 3.5 3.7 6.5s3.5 6.2 4.2 7.1c.8.8 1.4 1.9 1.4 2.2 0 .4 4.8 8.2 10.8 17.3 5.9 9.1 11.2 17.3 11.7 18.2.6 1 1.3 1.9 1.6 2.2.3.3 2 2.7 3.9 5.5 4.9 7.3 15.3 20.9 16.2 21.3.4.2.8 1 .8 1.7 0 .8.8 2 1.8 2.7.9.7 2.6 2.6 3.6 4.3 1.1 1.6 2.5 3.4 3.1 4 .6.5 2.9 3.2 5 6 2.2 2.7 4.4 5.5 5 6.1.5.6 3.5 3.9 6.5 7.4 12.8 14.7 36 38.5 47.4 48.5 3.2 2.8 6.9 6.1 8.5 7.5 12 10.9 44.1 36 46 36 .5 0 1.1.4 1.3.8.4 1.2 24.5 17.2 25.8 17.2.5 0 1 .4 1 1 0 .5.5 1 1.1 1 .6 0 2.9 1.3 5.2 2.8 2.3 1.5 6.3 3.9 9 5.2 2.6 1.4 4.7 2.8 4.7 3.2 0 .5.9.8 2 .8s2 .3 2 .7c0 .5 1 1.3 2.3 1.9 1.2.6 9.5 4.8 18.4 9.2 8.9 4.5 16.4 8.2 16.6 8.2.3 0 3.8 1.5 7.9 3.4 4 1.9 10.9 4.9 15.3 6.6 4.4 1.7 9.4 3.7 11 4.5 4.7 2 26.8 9.8 28.5 10 1.9.3 5 1.4 7.3 2.6 1 .5 2.2.7 2.7.4.5-.3 1.1-.1 1.4.4.3.5 2.3 1.2 4.3 1.6 2.1.4 4.4 1.1 5.1 1.7.6.6 1.2.8 1.2.5 0-.3 1.5-.1 3.3.4 8.2 2.5 24.7 6.6 24.7 6.2 0-.3.7 0 1.5.7s1.5 1 1.5.7c0-.3 3.7.4 8.3 1.4 4.5 1.1 9.3 2.2 10.7 2.4 1.4.2 3.5.6 4.7.9 1.1.2 4.3.8 7 1.2 5.2.9 6.2 1.1 6.6 1.3.2.2 5.3.8 10.5 1.3 1.2.1 2.2.5 2.2.8 0 .3 1.5.5 3.3.6 1.7 0 5.2.4 7.7.8 5.8.9 10.4 1.5 16 2 2.5.2 7.2.7 10.5 1 21.6 2.3 40 3 72.5 3 29.4 0 52.7-.8 53.7-1.8.4-.3 1.2-.1 2 .5.7.6 1.3.7 1.3.2 0-.5 1-.9 2.3-.9 3.2-.1 17.5-1.3 22.2-1.9 2.2-.3 6-.7 8.5-1 8.4-.8 18.9-2.2 23-3 1.4-.2 4.5-.7 7-.9 2.5-.3 5.6-.7 7-1 1.4-.3 5.2-1 8.5-1.5 3.3-.6 7.1-1.3 8.5-1.6 1.4-.3 4.1-.8 6-1.1 1.9-.4 4.4-.9 5.5-1.1 1.1-.2 3.4-.7 5-1 4.6-.8 6-1.1 6-1.3 0-.1.9-.3 2-.4 1.1-.2 7.9-1.7 15-3.5 13.8-3.5 16.4-4.1 18-4.4.6-.2 1.5-.5 2-.9.6-.3 2.7-.9 4.8-1.3 3.2-.6 4.5-.2 10.3 3.4 3.6 2.2 6.9 4.1 7.4 4.1.4 0 1 .4 1.2.8.3.7 18.9 12.2 21.3 13.1.5.2 1.2.7 1.5 1 .9 1 11.1 7.1 12 7.1.5 0 1 .4 1.2.8.2.5 2.8 2.3 5.8 4 8 4.7 9.2 5.5 12.6 7.9 1.7 1.2 3.4 2 3.6 1.8.3-.3 1.3.4 2.3 1.5 1 1.1 2.2 2 2.6 2 .8 0 10.9 6 11.9 7 .9 1 18.1 11 18.9 11 .6 0 3.3-7.7 4.8-13.5.1-.6.7-2.8 1.3-5 1.5-5.7 1.8-6.8 2.4-10.6.3-1.9.8-4.5 1.1-5.9.3-1.4.8-4.3 1-6.5.6-4.3 1.2-8 1.5-8 .1 0 .3-1.4.5-3 .1-1.7.6-5.9 1-9.5.4-3.6.9-8.1 1.1-10 .2-1.9.6-6 .9-9 .2-3 .7-8 1-11 1.2-11 2.8-35.8 2.9-44.7.1-3.5.3-6.3.6-6.3s.6-4.8.7-10.8c.1-5.9.5-19.9 1-31.2.9-24.4 1-191.1.1-219-.4-10.7-.7-20.4-.7-21.6-.1-1.9-.7-2-8.3-2.1-28.9-.3-60.8-1.2-61.7-1.7-.5-.4-1.2-.2-1.6.4-.4.6-1.1.7-1.7.4-1-.6-9-.9-64.4-1.8-12.2-.2-22.7-.7-23.4-1.1-.9-.6-1.1-.4-.5.4.6 1 .3 1.1-1.2.2-1.4-.7-2.3-.7-3.1.1-.7.7-1.2.8-1.2.3 0-.6-7.5-1.1-18.3-1.2-10-.1-28.5-.4-41.2-.7-56.8-1.3-82.1-1.9-97.2-2-9 0-16.3-.5-16.3-1s-.6-.3-1.3.3c-.8.6-1.6.8-2 .5-.5-.5-13.4-.9-65.8-1.8-11.4-.2-21.2-.6-21.7-1-.6-.3-1.3-.2-1.7.4-.4.6-1.1.8-1.6.4-.9-.5-22.5-1.1-67-1.8-9.6-.1-18-.6-18.7-1-.7-.4-1.2-.3-1.2.3 0 .7-.8.7-2.3.2-1.4-.5-3-.5-4 0-.9.6-1.7.6-1.7.2 0-.4-7.2-.8-16-.9-17.6 0-17-.4-10.5 6.2 1.6 1.7 4.9 5.3 7.2 8s6.5 7.4 9.3 10.4c2.9 3 7.9 8.6 11.3 12.4 3.4 3.8 7.6 8.4 9.2 10.1 1.7 1.8 5.9 6.5 9.5 10.6 3.6 4 7.6 8.4 9 9.9 1.4 1.5 6.3 6.9 11 12.1 4.6 5.2 9.1 10.1 10 11 .8.9 4.9 5.4 9 9.9 4.1 4.6 8.4 9.4 9.5 10.6 1.1 1.2 5.2 5.7 9 10 3.9 4.2 7.5 8.2 8.1 8.8 1.3 1.2-.6 2.6-12.6 8.9-4.1 2.2-7.6 4.4-7.8 4.9-.2.4-.7.8-1.1.8-.5 0-7.3 3.1-15.2 6.9-7.9 3.7-17.5 8-21.4 9.5-3.8 1.5-8.4 3.4-10.2 4.2-1.7.8-3.7 1.4-4.5 1.4-.8 0-1.8.4-2.3.9-.6.6-2.1 1.2-3.5 1.4-1.4.2-3.2.7-4 1-3 1.2-17.6 5.6-23 6.8-3 .7-5.7 1.4-6 1.4-.3.1-2.3.5-4.5 1-2.2.4-4.9 1-6 1.2-1.1.3-2.9.6-4 .8-13.1 2-18.9 2.8-23.5 3.2-7.7.8-49.6.8-55 0-2.5-.3-6.8-.8-9.6-1.2-2.8-.3-6-.7-7.1-.9-1.2-.3-4.3-.8-7-1.2-5.3-.9-6.2-1.1-6.5-1.4-.4-.2-3.8-.9-7-1.4-1.5-.3-4.2-.9-6-1.5-1.8-.6-8.7-2.7-15.3-4.7-6.6-2-12.6-4.1-13.2-4.6-.7-.6-1.3-.8-1.3-.5 0 .5-6.7-2.1-17-6.5-1.4-.6-2.7-1.2-3-1.3-2.8-.7-30.1-15.3-37.8-20.1-2.9-1.9-5.6-3.4-6.1-3.4s-1.1-.3-1.3-.8c-.1-.4-3.3-2.6-6.9-5-5.6-3.6-15.1-10.3-18.4-12.9-.5-.5-3.9-3.1-7.5-5.8-3.6-2.7-7.2-5.6-8-6.5-.8-.8-3.6-3.2-6.1-5.2-10.6-8.5-33.9-31.2-46.9-45.7-4.1-4.6-8-8.9-8.5-9.5-.6-.6-4.2-4.9-8-9.6-3.8-4.7-7.2-8.7-7.5-9-.3-.3-3.2-4.1-6.5-8.5s-6.3-8.2-6.7-8.3c-.5-.2-.8-.9-.8-1.5s-.9-2-1.9-3.1c-2.9-3.2-22.1-32.3-22.1-33.5 0-.6-.4-1.1-.8-1.1-.5 0-1.3-1.2-2-2.8-1-2.5-1.1-2.5-.5-.2zM1536.9 1046.4c-.2.2-7.1.7-15.4 1-8.2.4-19.7.9-25.5 1.2-5.8.4-15.8.7-22.2.8-6.5 0-11.8.3-11.8.6s-2.1.6-4.7.6c-4.8.1-26.8 1.1-41.8 1.9-7.3.4-13.1.6-44.5 2.1-5.8.3-14.4.6-19.2.8-4.7.2-9.1.7-9.6 1-.6.3-1.3.2-1.7-.4-.4-.6-1.1-.7-1.7-.4-.6.4-4.5.8-8.7 1-13.7.5-30.4 1.3-44.6 2-7.7.4-17.5.7-21.7.8-4.3.1-7.8.3-7.8.6s-3 .6-6.8.6c-8.6.2-34.7 1.3-34.7 1.4 0 .1-4.5.3-10 .6-10.8.4-25.4 1.1-40.5 1.9-5.2.2-15.6.7-23 1-7.4.4-16.4.8-20 1-3.6.2-12.8.6-20.5 1-7.7.3-17.1.8-21 1-10.8.6-34 1.6-44 2-4.9.2-9.2.4-9.5.5-.3.1-1.2.3-2 .4-1 .1-1.4 1-1.3 2.6.1 1.4.4 8.1.7 15 .2 6.9.5 12.5.6 12.5.1 0 .3 3.8.5 8.5s.6 12.8.9 18c1.3 22.9 1.7 30.1 2.1 39.4.2 5.4.6 10.1.9 10.3.3.3.1 1.4-.5 2.4-.5 1.1-.6 1.9-.2 1.9.4 0 .9 2.1.9 4.8.2 7.2 1.3 27.5 3 58.7.3 4.9.6 13.4.7 18.7.1 5.4.4 9.8.7 9.8.3 0 .6 3.5.6 7.8.1 4.2.5 13.3.9 20.2.4 6.9.8 15.9 1 20 .2 4.1.4 7.5.5 7.5.1 0 .3 4.9.5 11 .3 6 .7 14.8.9 19.5.3 4.7.8 13.4 1.1 19.5.3 6 .8 15.5 1.1 21 .3 5.5.7 13.4.9 17.5.2 4.1.6 12.4.9 18.5.4 6 .9 15.7 1.2 21.5.3 5.8.7 13.9.9 18 .2 4.1.7 13.3 1 20.5.4 7.1.8 14.9.9 17.2.1 2.3.5 4.5.8 4.8.7.7 16-9.2 16.6-10.7.2-.4.7-.8 1.2-.8.8 0 45.7-29.7 49.3-32.6 1-.8 2.9-2 4.3-2.6 1.3-.6 2.4-1.5 2.4-2 0-.4.6-.8 1.4-.8.8 0 1.6-.3 1.8-.8.2-.4 3.5-2.7 7.3-5.2 3.9-2.4 7.2-4.7 7.5-5 1.3-1.4 7-5 7.9-5 .5 0 1.1-.3 1.3-.8.2-.4 5.2-4 11.2-8 10.3-6.9 13.6-8.1 13.6-4.9 0 .8.7 2 1.5 2.7.8.7 1.3 1.6 1 2-.3.5-.1 1 .3 1.2.9.3 10.5 19.4 10.8 21.3.1.6 1.1 3.1 2.3 5.5 1.1 2.4 2.1 5.1 2.1 6 0 .9.3 2 .8 2.4.4.4.7 1.1.8 1.4 0 .4.3 1.4.6 2.2.8 2.1 2.9 9.9 3.4 12.4.2 1.2.6 3.2.9 4.6.5 2.4 1.3 7.5 2.1 13 .5 3.7.5 24.1-.1 27-.2 1.4-.9 5.2-1.5 8.5-1 5.9-1.7 9-2 9-.1 0-.3.7-.5 1.5-.7 3.2-3.7 11.2-6.3 16.7-2.6 5.5-10 18.2-11.1 19.3-.3.3-2.7 3.2-5.2 6.5-5.4 6.9-17.6 19.5-19 19.5-.5 0-.9.4-.9.9 0 .4-2.8 3-6.2 5.7-3.5 2.6-6.5 5.1-6.8 5.4-.9 1.1-20.4 13.7-26.5 17.2-9.7 5.5-35.2 17.8-37.9 18.2-.6.1-2 .7-3.1 1.3-2.9 1.6-35 12.4-37.4 12.6-1.1 0-1.7.5-1.4 1 .3.4 1.2.6 2.1.2.8-.3 3.1-.8 5.1-1.1 2-.3 6.3-1.2 9.6-2 3.3-.9 7.1-1.7 8.5-1.9 1.4-.2 5.3-1 8.8-1.8 3.4-.9 6.3-1.5 6.5-1.6.1 0 .9-.2 1.7-.5.8-.2 2.6-.7 4-.9 4.1-.8 6.6-1.5 14.8-3.7 4.2-1.2 8.4-2.3 9.2-2.5.8-.2 1.5-.4 1.5-.5 0-.1.7-.3 1.5-.5.8-.1 7.4-2.2 14.5-4.5 7.2-2.3 13.5-4.3 14-4.4.6 0 1.2-.3 1.5-.6.4-.5 7.9-3 10-3.5.3 0 1.4-.6 2.5-1.2s2.5-1.2 3-1.3c2-.5 4.4-1.4 20.1-8.1 30.1-12.7 56-26.7 81.9-44.2 6.5-4.4 23.3-16.6 25.1-18.2.6-.5 2.8-2.4 4.9-4 2.1-1.7 4.3-3.5 4.9-4 .6-.6 4.3-3.7 8.1-7 3.9-3.3 12.4-11.4 19-18 10.8-10.8 15.8-16.2 26.8-29 5.2-6.1 18.8-24.3 22.7-30.5 1.9-3 4.3-6.4 5.2-7.4 1-1.1 1.8-2.6 1.8-3.3 0-.7.3-1.3.8-1.3.4 0 1.2-1 1.8-2.3.6-1.2 4.2-7.6 8-14.2s8.6-15.6 10.7-20c2.2-4.4 4.3-8.7 4.8-9.5.5-.8 1.2-2.2 1.5-3 .7-1.8 1.3-3.2 5.8-13.3 1.9-4.2 3.5-8 3.6-8.2.1-.6.8-2.7 4.1-11.3 1.5-3.9 2.5-7.2 2.3-7.2-.3 0 .1-1 .8-2.3.7-1.2 1.3-2.4 1.3-2.7.1-.4 2.2-7.4 3-10 .1-.3.4-1.2.8-2 .3-.8 1.1-3.5 1.8-6 1.6-6 1.8-6.7 2.3-8.8.3-.9.5-1.7.6-1.7.2 0 .5-1.2 1.3-5 .3-1.1 1-4 1.7-6.5s1.4-5.6 1.6-7c.2-1.4.7-3.6 1.1-5 .3-1.4.7-3 .9-3.5.1-.6.5-2.6.8-4.5.4-1.9.9-4.2 1.1-5 .8-2.7 4-23.2 6-38.5.8-6.3 2.1-20.4 3.1-36 .7-11.1.7-48.6 0-61.5-.6-8.9-.8-11.7-2.1-22.3-.6-4.7-1.4-3.4 11.1-17.4 3.9-4.3 8.8-9.8 11-12.3 2.1-2.4 4.8-5.4 5.9-6.6 1.1-1.1 4.9-5.4 8.5-9.5 3.6-4 7.9-8.8 9.5-10.5 1.7-1.8 4.1-4.5 5.4-6.1 1.3-1.5 4.3-4.8 6.5-7.3 2.3-2.5 7-7.9 10.6-11.9 3.6-4.1 7.9-8.8 9.5-10.6 1.7-1.8 5.5-6.1 8.5-9.5 3-3.4 6.5-7.3 7.7-8.7 2.1-2.2 2.8-3.3 2-3.3-.2 0-.6.2-.8.4zM1028 1685c-.8.5-1 1-.5 1 .6 0 1.7-.5 2.5-1s1.1-1 .5-1c-.5 0-1.7.5-2.5 1z"/></svg>